<svg width="1818" height="1818" viewBox="0 0 1818 1818" fill="none" xmlns="http://www.w3.org/2000/svg">
<g opacity="0.09" clip-path="url(#clip0_417_188)">
<path d="M1447.96 690.502C1568.6 988.186 1425.08 1327.31 1127.39 1447.96C829.704 1568.6 490.579 1425.08 369.936 1127.39C249.292 829.705 392.813 490.581 690.501 369.936C988.186 249.293 1327.31 392.814 1447.96 690.502Z" stroke="#E6E6E6" stroke-width="70"/>
<path d="M1447.96 690.502C1568.6 988.186 1425.08 1327.31 1127.39 1447.96C829.704 1568.6 490.579 1425.08 369.936 1127.39C249.292 829.705 392.813 490.581 690.501 369.936C988.186 249.293 1327.31 392.814 1447.96 690.502Z" stroke="#E6E6E6" stroke-width="70"/>
<path d="M1092.49 897.315C1128.69 986.623 1085.63 1088.36 996.325 1124.55C907.016 1160.75 805.283 1117.69 769.088 1028.38C732.894 939.073 775.949 837.339 865.258 801.145C954.567 764.951 1056.3 808.006 1092.49 897.315Z" stroke="#E6E6E6" stroke-width="70"/>
<path d="M348.092 1073.49C509.957 1070.87 646.114 1057.39 768.829 1028.05M1426.18 636.768C1308.49 747.808 1201.46 832.955 1092.61 897.269" stroke="#E6E6E6" stroke-width="70"/>
</g>
<defs>
<clipPath id="clip0_417_188">
<rect width="1395.82" height="1395.82" fill="white" transform="translate(0 524.269) rotate(-22.0613)"/>
</clipPath>
</defs>
</svg>
